<svg width="117" height="42" viewBox="0 0 117 42" fill="none" xmlns="http://www.w3.org/2000/svg">
<path d="M41.3931 11.3647L38.6392 20H36.0903L40.0381 9.33594H41.6494L41.3931 11.3647ZM43.6782 20L40.917 11.3647L40.6313 9.33594H42.2646L46.2271 20H43.6782ZM43.561 16.0303V17.876H38.002V16.0303H43.561ZM48.9956 13.5986V23.0469H46.7104V12.0752H48.8418L48.9956 13.5986ZM53.9395 15.9497V16.1035C53.9395 16.6797 53.8735 17.2144 53.7417 17.7075C53.6099 18.1958 53.4121 18.623 53.1484 18.9893C52.8896 19.3555 52.5698 19.6411 52.189 19.8462C51.8081 20.0464 51.3662 20.1465 50.8633 20.1465C50.3848 20.1465 49.9697 20.0464 49.6182 19.8462C49.2715 19.6411 48.9785 19.3579 48.7393 18.9966C48.5049 18.6304 48.3145 18.2129 48.168 17.7441C48.0264 17.2705 47.9165 16.7651 47.8384 16.228V15.9277C47.9165 15.3564 48.0288 14.8267 48.1753 14.3384C48.3218 13.8501 48.5122 13.4277 48.7466 13.0713C48.981 12.71 49.2715 12.4292 49.6182 12.229C49.9648 12.0288 50.3774 11.9287 50.856 11.9287C51.354 11.9287 51.7959 12.0239 52.1816 12.2144C52.5674 12.4048 52.8896 12.6782 53.1484 13.0347C53.4121 13.3862 53.6099 13.8086 53.7417 14.3018C53.8735 14.7949 53.9395 15.3442 53.9395 15.9497ZM51.647 16.1035V15.9497C51.647 15.6274 51.6226 15.332 51.5737 15.0635C51.5249 14.79 51.4468 14.5532 51.3394 14.353C51.2319 14.1479 51.0903 13.9893 50.9146 13.877C50.7388 13.7646 50.5239 13.7085 50.27 13.7085C49.9966 13.7085 49.7646 13.7524 49.5742 13.8403C49.3838 13.9282 49.23 14.0576 49.1128 14.2285C48.9956 14.3945 48.9102 14.5996 48.8564 14.8438C48.8076 15.0879 48.7808 15.3662 48.7759 15.6787V16.4844C48.7808 16.8506 48.832 17.1777 48.9297 17.4658C49.0322 17.749 49.1909 17.9712 49.4058 18.1323C49.6255 18.2886 49.9185 18.3667 50.2847 18.3667C50.5435 18.3667 50.7583 18.3105 50.9292 18.1982C51.105 18.0811 51.2441 17.9175 51.3467 17.7075C51.4541 17.4976 51.5298 17.2559 51.5737 16.9824C51.6226 16.709 51.647 16.416 51.647 16.1035ZM57.5649 12.0752V20H55.2725V12.0752H57.5649ZM55.1333 10.0244C55.1333 9.69238 55.2505 9.42139 55.4849 9.21143C55.7192 8.99658 56.0269 8.88916 56.4077 8.88916C56.7886 8.88916 57.0962 8.99658 57.3306 9.21143C57.5698 9.42139 57.6895 9.69238 57.6895 10.0244C57.6895 10.3516 57.5698 10.6226 57.3306 10.8374C57.0962 11.0474 56.7886 11.1523 56.4077 11.1523C56.0269 11.1523 55.7192 11.0474 55.4849 10.8374C55.2505 10.6226 55.1333 10.3516 55.1333 10.0244ZM66.4858 13.6279V15.4736H60.9634V13.6279H66.4858ZM61.7178 9.33594V20H59.3301V9.33594H61.7178ZM68.1338 9.33594V20H65.7534V9.33594H68.1338ZM74.4399 18.0884V12.0752H76.7397V20H74.5864L74.4399 18.0884ZM74.6816 16.4697L75.3115 16.4551C75.3115 16.9873 75.248 17.478 75.1211 17.9272C74.999 18.3765 74.8135 18.7671 74.5645 19.0991C74.3203 19.4312 74.0151 19.6899 73.6489 19.8755C73.2876 20.0562 72.8652 20.1465 72.3818 20.1465C71.9912 20.1465 71.6323 20.0928 71.3052 19.9854C70.9829 19.873 70.7046 19.6997 70.4702 19.4653C70.2358 19.2261 70.0552 18.9209 69.9282 18.5498C69.8013 18.1738 69.7378 17.7246 69.7378 17.2021V12.0752H72.0229V17.2168C72.0229 17.4219 72.0474 17.5977 72.0962 17.7441C72.1499 17.8857 72.2207 18.0029 72.3086 18.0957C72.4014 18.1885 72.5137 18.2568 72.6455 18.3008C72.7822 18.3447 72.9312 18.3667 73.0923 18.3667C73.4976 18.3667 73.8149 18.2837 74.0444 18.1177C74.2788 17.9468 74.4424 17.7197 74.5352 17.4365C74.6328 17.1484 74.6816 16.8262 74.6816 16.4697ZM78.2339 8.75H80.519V18.1177L80.2847 20H78.2339V8.75ZM85.4629 15.9497V16.1035C85.4629 16.7041 85.3994 17.251 85.2725 17.7441C85.1504 18.2373 84.9624 18.6646 84.7085 19.0259C84.4546 19.3823 84.1348 19.6582 83.749 19.8535C83.3633 20.0488 82.9092 20.1465 82.3867 20.1465C81.9033 20.1465 81.4883 20.0464 81.1416 19.8462C80.7949 19.6411 80.5044 19.3579 80.27 18.9966C80.0356 18.6353 79.8452 18.2129 79.6987 17.7295C79.5571 17.2461 79.4473 16.7261 79.3691 16.1694V15.9058C79.4473 15.3491 79.5571 14.8291 79.6987 14.3457C79.8452 13.8623 80.0356 13.4399 80.27 13.0786C80.5044 12.7173 80.7925 12.4365 81.1343 12.2363C81.481 12.0312 81.8936 11.9287 82.3721 11.9287C82.8994 11.9287 83.356 12.0288 83.7417 12.229C84.1323 12.4292 84.4546 12.71 84.7085 13.0713C84.9624 13.4277 85.1504 13.8525 85.2725 14.3457C85.3994 14.834 85.4629 15.3687 85.4629 15.9497ZM83.1777 16.1035V15.9497C83.1777 15.647 83.1558 15.3613 83.1118 15.0928C83.0728 14.8242 83.002 14.5874 82.8994 14.3823C82.8018 14.1724 82.6626 14.0088 82.4819 13.8916C82.3062 13.7695 82.0791 13.7085 81.8008 13.7085C81.5273 13.7085 81.2954 13.7549 81.105 13.8477C80.9146 13.9404 80.7607 14.0723 80.6436 14.2432C80.5264 14.4092 80.4409 14.6118 80.3872 14.8511C80.3335 15.0903 80.3042 15.3564 80.2993 15.6494V16.4258C80.3042 16.8164 80.3555 17.1582 80.4531 17.4512C80.5508 17.7441 80.7095 17.9712 80.9292 18.1323C81.1489 18.2886 81.4443 18.3667 81.8154 18.3667C82.0986 18.3667 82.3281 18.313 82.5039 18.2056C82.6846 18.0933 82.8213 17.937 82.9141 17.7368C83.0117 17.5366 83.0801 17.2974 83.1191 17.019C83.1582 16.7407 83.1777 16.4355 83.1777 16.1035Z" fill="white"/>
<rect width="33" height="28" rx="4" fill="#7B61FF"/>
<path d="M7.58594 19.6667H5.21094L5.22656 18.4401H7.58594C8.39844 18.4401 9.07552 18.2708 9.61719 17.9323C10.1589 17.5885 10.5651 17.1094 10.8359 16.4948C11.112 15.875 11.25 15.151 11.25 14.3229V13.6276C11.25 12.9766 11.1719 12.3984 11.0156 11.8932C10.8594 11.3828 10.6302 10.9531 10.3281 10.6042C10.026 10.25 9.65625 9.98177 9.21875 9.79948C8.78646 9.61719 8.28906 9.52604 7.72656 9.52604H5.16406V8.29167H7.72656C8.47135 8.29167 9.15104 8.41667 9.76562 8.66667C10.3802 8.91146 10.9089 9.26823 11.3516 9.73698C11.7995 10.2005 12.1432 10.763 12.3828 11.4245C12.6224 12.0807 12.7422 12.8203 12.7422 13.6432V14.3229C12.7422 15.1458 12.6224 15.888 12.3828 16.5495C12.1432 17.2057 11.7969 17.7656 11.3438 18.2292C10.8958 18.6927 10.3542 19.0495 9.71875 19.2995C9.08854 19.5443 8.3776 19.6667 7.58594 19.6667ZM6.01562 8.29167V19.6667H4.50781V8.29167H6.01562ZM18.2969 19.8229C17.7083 19.8229 17.1745 19.724 16.6953 19.526C16.2214 19.3229 15.8125 19.0391 15.4688 18.6745C15.1302 18.3099 14.8698 17.8776 14.6875 17.3776C14.5052 16.8776 14.4141 16.3307 14.4141 15.737V15.4089C14.4141 14.7214 14.5156 14.1094 14.7188 13.5729C14.9219 13.0313 15.1979 12.5729 15.5469 12.1979C15.8958 11.8229 16.2917 11.5391 16.7344 11.3464C17.1771 11.1536 17.6354 11.0573 18.1094 11.0573C18.7135 11.0573 19.2344 11.1615 19.6719 11.3698C20.1146 11.5781 20.4766 11.8698 20.7578 12.2448C21.0391 12.6146 21.2474 13.0521 21.3828 13.5573C21.5182 14.0573 21.5859 14.6042 21.5859 15.1979V15.8464H15.2734V14.6667H20.1406V14.5573C20.1198 14.1823 20.0417 13.8177 19.9062 13.4635C19.776 13.1094 19.5677 12.8177 19.2812 12.5885C18.9948 12.3594 18.6042 12.2448 18.1094 12.2448C17.7812 12.2448 17.4792 12.3151 17.2031 12.4557C16.9271 12.5911 16.6901 12.7943 16.4922 13.0651C16.2943 13.3359 16.1406 13.6667 16.0312 14.0573C15.9219 14.4479 15.8672 14.8984 15.8672 15.4089V15.737C15.8672 16.138 15.9219 16.5156 16.0312 16.8698C16.1458 17.2188 16.3099 17.526 16.5234 17.7917C16.7422 18.0573 17.0052 18.2656 17.3125 18.4167C17.625 18.5677 17.9792 18.6432 18.375 18.6432C18.8854 18.6432 19.3177 18.5391 19.6719 18.3307C20.026 18.1224 20.3359 17.8438 20.6016 17.4948L21.4766 18.1901C21.2943 18.4661 21.0625 18.7292 20.7812 18.9792C20.5 19.2292 20.1536 19.4323 19.7422 19.5885C19.3359 19.7448 18.8542 19.8229 18.2969 19.8229ZM25.7344 18.362L28.0469 11.2135H29.5234L26.4844 19.6667H25.5156L25.7344 18.362ZM23.8047 11.2135L26.1875 18.401L26.3516 19.6667H25.3828L22.3203 11.2135H23.8047Z" fill="white"/>
</svg>
